<svg width="118" height="16" viewBox="0 0 118 16" fill="none" xmlns="http://www.w3.org/2000/svg">
<path d="M5.52922 15.28C4.15589 15.28 2.99589 14.9733 2.04922 14.36C1.10255 13.7467 0.429219 12.9 0.0292188 11.82L2.38922 10.44C2.93589 11.8667 4.00922 12.58 5.60922 12.58C6.35589 12.58 6.91589 12.4467 7.28922 12.18C7.66255 11.9133 7.84922 11.5533 7.84922 11.1C7.84922 10.6067 7.62922 10.2267 7.18922 9.96C6.74922 9.68 5.96255 9.38 4.82922 9.06C3.60255 8.68667 2.63589 8.25333 1.92922 7.76C1.04922 7.10667 0.609219 6.14667 0.609219 4.88C0.609219 3.6 1.05589 2.59333 1.94922 1.86C2.84255 1.1 3.92922 0.719999 5.20922 0.719999C6.32922 0.719999 7.32255 0.993332 8.18922 1.54C9.05589 2.08667 9.72922 2.86 10.2092 3.86L7.88922 5.2C7.32922 4 6.43589 3.4 5.20922 3.4C4.64922 3.4 4.20255 3.53333 3.86922 3.8C3.53589 4.05333 3.36922 4.38667 3.36922 4.8C3.36922 5.24 3.54922 5.6 3.90922 5.88C4.30922 6.16 5.01589 6.45333 6.02922 6.76L6.98922 7.08C7.16255 7.13333 7.46255 7.24667 7.88922 7.42C8.28922 7.56667 8.58255 7.70667 8.76922 7.84C9.42255 8.24 9.86255 8.65333 10.0892 9.08C10.4359 9.64 10.6092 10.3 10.6092 11.06C10.6092 12.3533 10.1359 13.38 9.18922 14.14C8.24255 14.9 7.02255 15.28 5.52922 15.28ZM20.2717 6.56V0.999999H23.0117V15H20.2717V9.2H15.0717V15H12.3117V0.999999H15.0717V6.56H20.2717ZM37.6125 15H34.6125L33.7725 12.48H28.1925L27.3525 15H24.3725L29.2725 0.999999H32.6925L37.6125 15ZM30.9925 4.18L29.0725 9.9H32.9125L30.9925 4.18ZM38.9719 0.999999H44.1919C45.5252 0.999999 46.6585 1.45333 47.5919 2.36C48.5119 3.26667 48.9719 4.38 48.9719 5.7C48.9719 7.02 48.5119 8.13333 47.5919 9.04C46.6585 9.94667 45.5252 10.4 44.1919 10.4H41.7319V15H38.9719V0.999999ZM41.7319 7.82H44.1919C44.7785 7.82 45.2652 7.62 45.6519 7.22C46.0385 6.80667 46.2319 6.3 46.2319 5.7C46.2319 5.08667 46.0385 4.58 45.6519 4.18C45.2652 3.78 44.7785 3.58 44.1919 3.58H41.7319V7.82ZM53.5288 9.22V12.36H59.4288V15H50.7688V0.999999H59.3288V3.64H53.5288V6.62H58.8288V9.22H53.5288ZM68.2542 15H64.8342L60.1342 0.999999H63.1342L66.5542 11.76L69.9542 0.999999H72.9742L68.2542 15ZM85.4784 13.18C84.0651 14.58 82.3451 15.28 80.3184 15.28C78.2918 15.28 76.5718 14.58 75.1584 13.18C73.7584 11.7533 73.0584 10.0267 73.0584 8C73.0584 5.96 73.7584 4.24 75.1584 2.84C76.5718 1.42667 78.2918 0.719999 80.3184 0.719999C82.3451 0.719999 84.0651 1.42667 85.4784 2.84C86.8918 4.24 87.5984 5.96 87.5984 8C87.5984 10.04 86.8918 11.7667 85.4784 13.18ZM77.0984 11.3C77.9518 12.1533 79.0251 12.58 80.3184 12.58C81.6118 12.58 82.6851 12.1533 83.5384 11.3C84.4051 10.4333 84.8384 9.33333 84.8384 8C84.8384 6.66667 84.4051 5.56667 83.5384 4.7C82.6718 3.83333 81.5984 3.4 80.3184 3.4C79.0384 3.4 77.9651 3.83333 77.0984 4.7C76.2318 5.56667 75.7984 6.66667 75.7984 8C75.7984 9.33333 76.2318 10.4333 77.0984 11.3ZM89.5383 15V0.999999H92.2983V15H89.5383ZM101.53 15.28C99.4365 15.28 97.6965 14.58 96.3098 13.18C94.9365 11.7933 94.2498 10.0667 94.2498 8C94.2498 5.92 94.9365 4.19333 96.3098 2.82C97.6965 1.42 99.4365 0.719999 101.53 0.719999C102.797 0.719999 103.963 1.02 105.03 1.62C106.11 2.20667 106.95 3.00667 107.55 4.02L105.17 5.4C104.823 4.77333 104.33 4.28667 103.69 3.94C103.05 3.58 102.33 3.4 101.53 3.4C100.17 3.4 99.0698 3.82667 98.2298 4.68C97.4032 5.54667 96.9898 6.65333 96.9898 8C96.9898 9.33333 97.4032 10.4333 98.2298 11.3C99.0698 12.1533 100.17 12.58 101.53 12.58C102.33 12.58 103.05 12.4067 103.69 12.06C104.343 11.7 104.837 11.2133 105.17 10.6L107.55 11.98C106.95 12.9933 106.11 13.8 105.03 14.4C103.963 14.9867 102.797 15.28 101.53 15.28ZM112.005 9.22V12.36H117.905V15H109.245V0.999999H117.805V3.64H112.005V6.62H117.305V9.22H112.005Z" fill="black"/>
</svg>
